<svg width="1920" height="3473" viewBox="0 0 1920 3473" fill="none" xmlns="http://www.w3.org/2000/svg">
<g clip-path="url(#clip0_171_29)">
<ellipse cx="424.402" cy="879.229" rx="636.599" ry="338.47" fill="#10E773"/>
<ellipse cx="134.264" cy="345.404" rx="433.544" ry="379.545" transform="rotate(18.6793 134.264 345.404)" fill="#10E773"/>
<mask id="mask0_171_29" style="mask-type:alpha" maskUnits="userSpaceOnUse" x="-213" y="540" width="1274" height="678">
<ellipse cx="424.398" cy="879.23" rx="636.599" ry="338.47" fill="black"/>
</mask>
<g mask="url(#mask0_171_29)">
<ellipse cx="134.262" cy="345.405" rx="433.544" ry="379.545" transform="rotate(18.6793 134.262 345.405)" fill="#2D19A6"/>
</g>
<ellipse cx="1732.55" cy="1927.75" rx="1043.2" ry="554.652" transform="rotate(-77.4129 1732.55 1927.75)" fill="#10E773"/>
<ellipse cx="775.185" cy="2201.13" rx="710.451" ry="621.962" transform="rotate(-58.7336 775.185 2201.13)" fill="#10E773"/>
<mask id="mask1_171_29" style="mask-type:alpha" maskUnits="userSpaceOnUse" x="1145" y="902" width="1175" height="2052">
<ellipse cx="1732.56" cy="1927.75" rx="1043.2" ry="554.652" transform="rotate(-77.4129 1732.56 1927.75)" fill="black"/>
</mask>
<g mask="url(#mask1_171_29)">
<ellipse cx="775.187" cy="2201.14" rx="710.451" ry="621.962" transform="rotate(-58.7336 775.187 2201.14)" fill="#2D19A6"/>
</g>
</g>
<defs>
<clipPath id="clip0_171_29">
<rect width="1920" height="3473" fill="white"/>
</clipPath>
</defs>
</svg>
