<svg width="10652" height="1000" viewBox="0 0 10652 1000" fill="none" xmlns="http://www.w3.org/2000/svg">
<g clip-path="url(#clip0_22_162)">
<rect width="10652" height="1000" fill="white"/>
<path d="M1798 850L1529 539V850H1415V155H1529V472L1799 155H1942L1640 503L1947 850H1798ZM2009.81 572C2009.81 516.667 2021.15 467.667 2043.81 425C2067.15 382.333 2098.48 349.333 2137.81 326C2177.81 302 2221.81 290 2269.81 290C2313.15 290 2350.81 298.667 2382.81 316C2415.48 332.667 2441.48 353.667 2460.81 379V299H2575.81V850H2460.81V768C2441.48 794 2415.15 815.667 2381.81 833C2348.48 850.333 2310.48 859 2267.81 859C2220.48 859 2177.15 847 2137.81 823C2098.48 798.333 2067.15 764.333 2043.81 721C2021.15 677 2009.81 627.333 2009.81 572ZM2460.81 574C2460.81 536 2452.81 503 2436.81 475C2421.48 447 2401.15 425.667 2375.81 411C2350.48 396.333 2323.15 389 2293.81 389C2264.48 389 2237.15 396.333 2211.81 411C2186.48 425 2165.81 446 2149.81 474C2134.48 501.333 2126.81 534 2126.81 572C2126.81 610 2134.48 643.333 2149.81 672C2165.81 700.667 2186.48 722.667 2211.81 738C2237.81 752.667 2265.15 760 2293.81 760C2323.15 760 2350.48 752.667 2375.81 738C2401.15 723.333 2421.48 702 2436.81 674C2452.81 645.333 2460.81 612 2460.81 574ZM2858.55 392V697C2858.55 717.667 2863.21 732.667 2872.55 742C2882.55 750.667 2899.21 755 2922.55 755H2992.55V850H2902.55C2851.21 850 2811.88 838 2784.55 814C2757.21 790 2743.55 751 2743.55 697V392H2678.55V299H2743.55V162H2858.55V299H2992.55V392H2858.55ZM3211.62 379C3228.28 351 3250.28 329.333 3277.62 314C3305.62 298 3338.62 290 3376.62 290V408H3347.62C3302.95 408 3268.95 419.333 3245.62 442C3222.95 464.667 3211.62 504 3211.62 560V850H3097.62V299H3211.62V379ZM3443.41 572C3443.41 516.667 3454.74 467.667 3477.41 425C3500.74 382.333 3532.07 349.333 3571.41 326C3611.41 302 3655.41 290 3703.41 290C3746.74 290 3784.41 298.667 3816.41 316C3849.07 332.667 3875.07 353.667 3894.41 379V299H4009.41V850H3894.41V768C3875.07 794 3848.74 815.667 3815.41 833C3782.07 850.333 3744.07 859 3701.41 859C3654.07 859 3610.74 847 3571.41 823C3532.07 798.333 3500.74 764.333 3477.41 721C3454.74 677 3443.41 627.333 3443.41 572ZM3894.41 574C3894.41 536 3886.41 503 3870.41 475C3855.07 447 3834.74 425.667 3809.41 411C3784.07 396.333 3756.74 389 3727.41 389C3698.07 389 3670.74 396.333 3645.41 411C3620.07 425 3599.41 446 3583.41 474C3568.07 501.333 3560.41 534 3560.41 572C3560.41 610 3568.07 643.333 3583.41 672C3599.41 700.667 3620.07 722.667 3645.41 738C3671.41 752.667 3698.74 760 3727.41 760C3756.74 760 3784.07 752.667 3809.41 738C3834.74 723.333 3855.07 702 3870.41 674C3886.41 645.333 3894.41 612 3894.41 574ZM4121.14 572C4121.14 516.667 4132.47 467.667 4155.14 425C4178.47 382.333 4209.81 349.333 4249.14 326C4289.14 302 4333.47 290 4382.14 290C4418.14 290 4453.47 298 4488.14 314C4523.47 329.333 4551.47 350 4572.14 376V110H4687.14V850H4572.14V767C4553.47 793.667 4527.47 815.667 4494.14 833C4461.47 850.333 4423.81 859 4381.14 859C4333.14 859 4289.14 847 4249.14 823C4209.81 798.333 4178.47 764.333 4155.14 721C4132.47 677 4121.14 627.333 4121.14 572ZM4572.14 574C4572.14 536 4564.14 503 4548.14 475C4532.81 447 4512.47 425.667 4487.14 411C4461.81 396.333 4434.47 389 4405.14 389C4375.81 389 4348.47 396.333 4323.14 411C4297.81 425 4277.14 446 4261.14 474C4245.81 501.333 4238.14 534 4238.14 572C4238.14 610 4245.81 643.333 4261.14 672C4277.14 700.667 4297.81 722.667 4323.14 738C4349.14 752.667 4376.47 760 4405.14 760C4434.47 760 4461.81 752.667 4487.14 738C4512.47 723.333 4532.81 702 4548.14 674C4564.14 645.333 4572.14 612 4572.14 574ZM5341.88 561C5341.88 581.667 5340.54 600.333 5337.88 617H4916.88C4920.21 661 4936.54 696.333 4965.88 723C4995.21 749.667 5031.21 763 5073.88 763C5135.21 763 5178.54 737.333 5203.88 686H5326.87C5310.21 736.667 5279.88 778.333 5235.88 811C5192.54 843 5138.54 859 5073.88 859C5021.21 859 4973.88 847.333 4931.88 824C4890.54 800 4857.88 766.667 4833.88 724C4810.54 680.667 4798.88 630.667 4798.88 574C4798.88 517.333 4810.21 467.667 4832.88 425C4856.21 381.667 4888.54 348.333 4929.88 325C4971.88 301.667 5019.88 290 5073.88 290C5125.88 290 5172.21 301.333 5212.88 324C5253.54 346.667 5285.21 378.667 5307.88 420C5330.54 460.667 5341.88 507.667 5341.88 561ZM5222.88 525C5222.21 483 5207.21 449.333 5177.88 424C5148.54 398.667 5112.21 386 5068.88 386C5029.54 386 4995.88 398.667 4967.88 424C4939.88 448.667 4923.21 482.333 4917.88 525H5222.88Z" fill="black"/>
<path d="M6112 684H5794L5733 850H5659L5914 160H5993L6247 850H6173L6112 684ZM6091 626L5953 248L5815 626H6091ZM6327.34 577C6327.34 520.333 6338.68 471 6361.34 429C6384.01 386.333 6415.34 353.667 6455.34 331C6495.34 307.667 6541.01 296 6592.34 296C6659.68 296 6715.01 312.667 6758.34 346C6802.34 379.333 6830.68 424.667 6843.34 482H6768.34C6759.01 442.667 6738.68 412 6707.34 390C6676.68 367.333 6638.34 356 6592.34 356C6555.68 356 6522.68 364.333 6493.34 381C6464.01 397.667 6440.68 422.667 6423.34 456C6406.68 488.667 6398.34 529 6398.34 577C6398.34 625 6406.68 665.667 6423.34 699C6440.68 732.333 6464.01 757.333 6493.34 774C6522.68 790.667 6555.68 799 6592.34 799C6638.34 799 6676.68 788 6707.34 766C6738.68 743.333 6759.01 712 6768.34 672H6843.34C6830.68 728 6802.34 773 6758.34 807C6714.34 841 6659.01 858 6592.34 858C6541.01 858 6495.34 846.667 6455.34 824C6415.34 800.667 6384.01 768 6361.34 726C6338.68 683.333 6327.34 633.667 6327.34 577ZM6940.63 577C6940.63 520.333 6951.96 471 6974.63 429C6997.29 386.333 7028.63 353.667 7068.63 331C7108.63 307.667 7154.29 296 7205.63 296C7272.96 296 7328.29 312.667 7371.63 346C7415.63 379.333 7443.96 424.667 7456.63 482H7381.63C7372.29 442.667 7351.96 412 7320.63 390C7289.96 367.333 7251.63 356 7205.63 356C7168.96 356 7135.96 364.333 7106.63 381C7077.29 397.667 7053.96 422.667 7036.63 456C7019.96 488.667 7011.63 529 7011.63 577C7011.63 625 7019.96 665.667 7036.63 699C7053.96 732.333 7077.29 757.333 7106.63 774C7135.96 790.667 7168.96 799 7205.63 799C7251.63 799 7289.96 788 7320.63 766C7351.96 743.333 7372.29 712 7381.63 672H7456.63C7443.96 728 7415.63 773 7371.63 807C7327.63 841 7272.29 858 7205.63 858C7154.29 858 7108.63 846.667 7068.63 824C7028.63 800.667 6997.29 768 6974.63 726C6951.96 683.333 6940.63 633.667 6940.63 577ZM7824.91 858C7773.57 858 7727.24 846.667 7685.91 824C7645.24 800.667 7612.91 768 7588.91 726C7565.57 683.333 7553.91 633.667 7553.91 577C7553.91 520.333 7565.91 471 7589.91 429C7613.91 386.333 7646.57 353.667 7687.91 331C7729.24 307.667 7775.57 296 7826.91 296C7878.24 296 7924.57 307.667 7965.91 331C8007.91 353.667 8040.57 386.333 8063.91 429C8087.91 471 8099.91 520.333 8099.91 577C8099.91 633 8087.91 682.333 8063.91 725C8039.91 767.667 8006.91 800.667 7964.91 824C7922.91 846.667 7876.24 858 7824.91 858ZM7824.91 797C7860.91 797 7894.24 789 7924.91 773C7955.57 756.333 7980.24 731.667 7998.91 699C8018.24 665.667 8027.91 625 8027.91 577C8027.91 529 8018.57 488.667 7999.91 456C7981.24 422.667 7956.57 398 7925.91 382C7895.24 365.333 7861.91 357 7825.91 357C7789.91 357 7756.57 365.333 7725.91 382C7695.24 398 7670.57 422.667 7651.91 456C7633.91 488.667 7624.91 529 7624.91 577C7624.91 625 7633.91 665.667 7651.91 699C7670.57 731.667 7694.91 756.333 7724.91 773C7755.57 789 7788.91 797 7824.91 797ZM8700.51 304V850H8630.51V754C8614.51 788 8589.84 814 8556.51 832C8523.17 850 8485.84 859 8444.51 859C8379.17 859 8325.84 839 8284.51 799C8243.17 758.333 8222.51 699.667 8222.51 623V304H8291.51V615C8291.51 674.333 8306.17 719.667 8335.51 751C8365.51 782.333 8406.17 798 8457.51 798C8510.17 798 8552.17 781.333 8583.51 748C8614.84 714.667 8630.51 665.667 8630.51 601V304H8700.51ZM9116.32 294C9181.65 294 9234.99 314.333 9276.32 355C9317.65 395 9338.32 453.333 9338.32 530V850H9269.32V538C9269.32 478.667 9254.32 433.333 9224.32 402C9194.99 370.667 9154.65 355 9103.32 355C9050.65 355 9008.65 371.667 8977.32 405C8945.99 438.333 8930.32 487.333 8930.32 552V850H8860.32V304H8930.32V397C8947.65 363.667 8972.65 338.333 9005.32 321C9037.99 303 9074.99 294 9116.32 294ZM9584.13 363V702C9584.13 735.333 9590.47 758.333 9603.13 771C9615.8 783.667 9638.13 790 9670.13 790H9734.13V850H9659.13C9609.8 850 9573.13 838.667 9549.13 816C9525.13 792.667 9513.13 754.667 9513.13 702V363H9437.13V304H9513.13V167H9584.13V304H9734.13V363H9584.13ZM10037.6 858C9974.91 858 9923.58 843.667 9883.58 815C9844.24 785.667 9822.24 746 9817.58 696H9889.58C9892.91 726.667 9907.24 751.667 9932.58 771C9958.58 789.667 9993.24 799 10036.6 799C10074.6 799 10104.2 790 10125.6 772C10147.6 754 10158.6 731.667 10158.6 705C10158.6 686.333 10152.6 671 10140.6 659C10128.6 647 10113.2 637.667 10094.6 631C10076.6 623.667 10051.9 616 10020.6 608C9979.91 597.333 9946.91 586.667 9921.58 576C9896.24 565.333 9874.58 549.667 9856.58 529C9839.24 507.667 9830.58 479.333 9830.58 444C9830.58 417.333 9838.58 392.667 9854.58 370C9870.58 347.333 9893.24 329.333 9922.58 316C9951.91 302.667 9985.24 296 10022.6 296C10081.2 296 10128.6 311 10164.6 341C10200.6 370.333 10219.9 411 10222.6 463H10152.6C10150.6 431 10137.9 405.333 10114.6 386C10091.9 366 10060.6 356 10020.6 356C9985.24 356 9956.58 364.333 9934.58 381C9912.58 397.667 9901.58 418.333 9901.58 443C9901.58 464.333 9907.91 482 9920.58 496C9933.91 509.333 9950.24 520 9969.58 528C9988.91 535.333 10014.9 543.667 10047.6 553C10086.9 563.667 10118.2 574 10141.6 584C10164.9 594 10184.9 608.667 10201.6 628C10218.2 647.333 10226.9 673 10227.6 705C10227.6 734.333 10219.6 760.667 10203.6 784C10187.6 806.667 10165.2 824.667 10136.6 838C10107.9 851.333 10074.9 858 10037.6 858Z" fill="black"/>
<circle cx="795" cy="500" r="432" fill="#2C2C2C"/>
<mask id="mask0_22_162" style="mask-type:alpha" maskUnits="userSpaceOnUse" x="436" y="141" width="718" height="718">
<circle cx="795" cy="500" r="358.56" fill="#D9D9D9"/>
</mask>
<g mask="url(#mask0_22_162)">
<path d="M601.896 808.016C1072.95 648.349 1051.61 333.392 982.056 195.872C941.966 524.538 633.288 695.984 483.96 740.624L601.896 808.016Z" fill="#269C79"/>
<path d="M495.624 697.856C408.187 347.763 789.24 217.472 983.352 195.872L565.176 -136.336L-210.696 606.272L495.624 697.856Z" fill="#59DB95"/>
<path d="M1471.51 784.256L1096.54 309.056C1096.54 691.981 716.088 754.016 525.864 737.168L690.024 1005.01L1471.51 784.256Z" fill="#59DB95"/>
<circle cx="669.72" cy="500" r="144.288" fill="#9DFFCA"/>
</g>
</g>
<defs>
<clipPath id="clip0_22_162">
<rect width="10652" height="1000" fill="white"/>
</clipPath>
</defs>
</svg>
