<svg width="11487" height="1745" viewBox="0 0 11487 1745" fill="none" xmlns="http://www.w3.org/2000/svg">
<rect width="11487" height="1745" fill="white"/>
<path d="M2488 1209L2234 898V1209H2094V511H2234V824L2488 511H2657L2369 857L2665 1209H2488ZM2721.09 930C2721.09 874 2732.09 824.333 2754.09 781C2776.75 737.667 2807.09 704.333 2845.09 681C2883.75 657.667 2926.75 646 2974.09 646C3015.42 646 3051.42 654.333 3082.09 671C3113.42 687.667 3138.42 708.667 3157.09 734V655H3298.09V1209H3157.09V1128C3139.09 1154 3114.09 1175.67 3082.09 1193C3050.75 1209.67 3014.42 1218 2973.09 1218C2926.42 1218 2883.75 1206 2845.09 1182C2807.09 1158 2776.75 1124.33 2754.09 1081C2732.09 1037 2721.09 986.667 2721.09 930ZM3157.09 932C3157.09 898 3150.42 869 3137.09 845C3123.75 820.333 3105.75 801.667 3083.09 789C3060.42 775.667 3036.09 769 3010.09 769C2984.09 769 2960.09 775.333 2938.09 788C2916.09 800.667 2898.09 819.333 2884.09 844C2870.75 868 2864.09 896.667 2864.09 930C2864.09 963.333 2870.75 992.667 2884.09 1018C2898.09 1042.67 2916.09 1061.67 2938.09 1075C2960.75 1088.33 2984.75 1095 3010.09 1095C3036.09 1095 3060.42 1088.67 3083.09 1076C3105.75 1062.67 3123.75 1044 3137.09 1020C3150.42 995.333 3157.09 966 3157.09 932ZM3597.82 770V1038C3597.82 1056.67 3602.15 1070.33 3610.82 1079C3620.15 1087 3635.49 1091 3656.82 1091H3721.82V1209H3633.82C3515.82 1209 3456.82 1151.67 3456.82 1037V770H3390.82V655H3456.82V518H3597.82V655H3721.82V770H3597.82ZM3962.52 741C3980.52 711.667 4003.85 688.667 4032.52 672C4061.85 655.333 4095.18 647 4132.52 647V794H4095.52C4051.52 794 4018.18 804.333 3995.52 825C3973.52 845.667 3962.52 881.667 3962.52 933V1209H3822.52V655H3962.52V741ZM4190.81 930C4190.81 874 4201.81 824.333 4223.81 781C4246.48 737.667 4276.81 704.333 4314.81 681C4353.48 657.667 4396.48 646 4443.81 646C4485.15 646 4521.15 654.333 4551.81 671C4583.15 687.667 4608.15 708.667 4626.81 734V655H4767.81V1209H4626.81V1128C4608.81 1154 4583.81 1175.67 4551.81 1193C4520.48 1209.67 4484.15 1218 4442.81 1218C4396.15 1218 4353.48 1206 4314.81 1182C4276.81 1158 4246.48 1124.33 4223.81 1081C4201.81 1037 4190.81 986.667 4190.81 930ZM4626.81 932C4626.81 898 4620.15 869 4606.81 845C4593.48 820.333 4575.48 801.667 4552.81 789C4530.15 775.667 4505.81 769 4479.81 769C4453.81 769 4429.81 775.333 4407.81 788C4385.81 800.667 4367.81 819.333 4353.81 844C4340.48 868 4333.81 896.667 4333.81 930C4333.81 963.333 4340.48 992.667 4353.81 1018C4367.81 1042.67 4385.81 1061.67 4407.81 1075C4430.48 1088.33 4454.48 1095 4479.81 1095C4505.81 1095 4530.15 1088.67 4552.81 1076C4575.48 1062.67 4593.48 1044 4606.81 1020C4620.15 995.333 4626.81 966 4626.81 932ZM4868.55 930C4868.55 874 4879.55 824.333 4901.55 781C4924.21 737.667 4954.88 704.333 4993.55 681C5032.21 657.667 5075.21 646 5122.55 646C5158.55 646 5192.88 654 5225.55 670C5258.21 685.333 5284.21 706 5303.55 732V469H5445.55V1209H5303.55V1127C5286.21 1154.33 5261.88 1176.33 5230.55 1193C5199.21 1209.67 5162.88 1218 5121.55 1218C5074.88 1218 5032.21 1206 4993.55 1182C4954.88 1158 4924.21 1124.33 4901.55 1081C4879.55 1037 4868.55 986.667 4868.55 930ZM5304.55 932C5304.55 898 5297.88 869 5284.55 845C5271.21 820.333 5253.21 801.667 5230.55 789C5207.88 775.667 5183.55 769 5157.55 769C5131.55 769 5107.55 775.333 5085.55 788C5063.55 800.667 5045.55 819.333 5031.55 844C5018.21 868 5011.55 896.667 5011.55 930C5011.55 963.333 5018.21 992.667 5031.55 1018C5045.55 1042.67 5063.55 1061.67 5085.55 1075C5108.21 1088.33 5132.21 1095 5157.55 1095C5183.55 1095 5207.88 1088.67 5230.55 1076C5253.21 1062.67 5271.21 1044 5284.55 1020C5297.88 995.333 5304.55 966 5304.55 932ZM6097.28 920C6097.28 940 6095.95 958 6093.28 974H5688.28C5691.61 1014 5705.61 1045.33 5730.28 1068C5754.95 1090.67 5785.28 1102 5821.28 1102C5873.28 1102 5910.28 1079.67 5932.28 1035H6083.28C6067.28 1088.33 6036.61 1132.33 5991.28 1167C5945.95 1201 5890.28 1218 5824.28 1218C5770.95 1218 5722.95 1206.33 5680.28 1183C5638.28 1159 5605.28 1125.33 5581.28 1082C5557.95 1038.67 5546.28 988.667 5546.28 932C5546.28 874.667 5557.95 824.333 5581.28 781C5604.61 737.667 5637.28 704.333 5679.28 681C5721.28 657.667 5769.61 646 5824.28 646C5876.95 646 5923.95 657.333 5965.28 680C6007.28 702.667 6039.61 735 6062.28 777C6085.61 818.333 6097.28 866 6097.28 920ZM5952.28 880C5951.61 844 5938.61 815.333 5913.28 794C5887.95 772 5856.95 761 5820.28 761C5785.61 761 5756.28 771.667 5732.28 793C5708.95 813.667 5694.61 842.667 5689.28 880H5952.28Z" fill="black"/>
<path d="M6801 1054H6497L6441 1209H6345L6597 516H6702L6953 1209H6857L6801 1054ZM6775 980L6649 628L6523 980H6775ZM7028.83 934C7028.83 877.333 7040.16 828 7062.83 786C7085.49 743.333 7116.83 710.333 7156.83 687C7197.49 663.667 7243.83 652 7295.83 652C7363.16 652 7418.49 668.333 7461.83 701C7505.83 733.667 7534.83 779 7548.83 837H7450.83C7441.49 803.667 7423.16 777.333 7395.83 758C7369.16 738.667 7335.83 729 7295.83 729C7243.83 729 7201.83 747 7169.83 783C7137.83 818.333 7121.83 868.667 7121.83 934C7121.83 1000 7137.83 1051 7169.83 1087C7201.83 1123 7243.83 1141 7295.83 1141C7335.83 1141 7369.16 1131.67 7395.83 1113C7422.49 1094.33 7440.83 1067.67 7450.83 1033H7548.83C7534.16 1089 7504.83 1134 7460.83 1168C7416.83 1201.33 7361.83 1218 7295.83 1218C7243.83 1218 7197.49 1206.33 7156.83 1183C7116.83 1159.67 7085.49 1126.67 7062.83 1084C7040.16 1041.33 7028.83 991.333 7028.83 934ZM7636.25 934C7636.25 877.333 7647.58 828 7670.25 786C7692.92 743.333 7724.25 710.333 7764.25 687C7804.92 663.667 7851.25 652 7903.25 652C7970.58 652 8025.92 668.333 8069.25 701C8113.25 733.667 8142.25 779 8156.25 837H8058.25C8048.92 803.667 8030.58 777.333 8003.25 758C7976.58 738.667 7943.25 729 7903.25 729C7851.25 729 7809.25 747 7777.25 783C7745.25 818.333 7729.25 868.667 7729.25 934C7729.25 1000 7745.25 1051 7777.25 1087C7809.25 1123 7851.25 1141 7903.25 1141C7943.25 1141 7976.58 1131.67 8003.25 1113C8029.92 1094.33 8048.25 1067.67 8058.25 1033H8156.25C8141.58 1089 8112.25 1134 8068.25 1168C8024.25 1201.33 7969.25 1218 7903.25 1218C7851.25 1218 7804.92 1206.33 7764.25 1183C7724.25 1159.67 7692.92 1126.67 7670.25 1084C7647.58 1041.33 7636.25 991.333 7636.25 934ZM8516.67 1218C8465.34 1218 8418.67 1206.33 8376.67 1183C8335.34 1159.67 8302.67 1126.67 8278.67 1084C8255.34 1040.67 8243.67 990.667 8243.67 934C8243.67 878 8255.67 828.667 8279.67 786C8304.34 742.667 8337.67 709.667 8379.67 687C8421.67 663.667 8468.67 652 8520.67 652C8572.67 652 8619.67 663.667 8661.67 687C8703.67 709.667 8736.67 742.333 8760.67 785C8785.34 827.667 8797.67 877.333 8797.67 934C8797.67 990.667 8785.01 1040.67 8759.67 1084C8735.01 1126.67 8701.34 1159.67 8658.67 1183C8616.01 1206.33 8568.67 1218 8516.67 1218ZM8516.67 1138C8549.34 1138 8580.01 1130.33 8608.67 1115C8637.34 1099.67 8660.34 1076.67 8677.67 1046C8695.67 1015.33 8704.67 978 8704.67 934C8704.67 890 8696.01 852.667 8678.67 822C8661.34 791.333 8638.67 768.667 8610.67 754C8582.67 738.667 8552.34 731 8519.67 731C8486.34 731 8455.67 738.667 8427.67 754C8400.34 768.667 8378.34 791.333 8361.67 822C8345.01 852.667 8336.67 890 8336.67 934C8336.67 978.667 8344.67 1016.33 8360.67 1047C8377.34 1077.67 8399.34 1100.67 8426.67 1116C8454.01 1130.67 8484.01 1138 8516.67 1138ZM9403.32 661V1209H9312.32V1128C9294.99 1156 9270.65 1178 9239.32 1194C9208.65 1209.33 9174.65 1217 9137.32 1217C9094.65 1217 9056.32 1208.33 9022.32 1191C8988.32 1173 8961.32 1146.33 8941.32 1111C8921.99 1075.67 8912.32 1032.67 8912.32 982V661H9002.32V970C9002.32 1024 9015.99 1065.67 9043.32 1095C9070.65 1123.67 9107.99 1138 9155.32 1138C9203.99 1138 9242.32 1123 9270.32 1093C9298.32 1063 9312.32 1019.33 9312.32 962V661H9403.32ZM9823.97 651C9890.64 651 9944.64 671.333 9985.97 712C10027.3 752 10048 810 10048 886V1209H9957.97V899C9957.97 844.333 9944.3 802.667 9916.97 774C9889.64 744.667 9852.3 730 9804.97 730C9756.97 730 9718.64 745 9689.97 775C9661.97 805 9647.97 848.667 9647.97 906V1209H9556.97V661H9647.97V739C9665.97 711 9690.3 689.333 9720.97 674C9752.3 658.667 9786.64 651 9823.97 651ZM10307.6 736V1059C10307.6 1085.67 10313.3 1104.67 10324.6 1116C10336 1126.67 10355.6 1132 10383.6 1132H10450.6V1209H10368.6C10318 1209 10280 1197.33 10254.6 1174C10229.3 1150.67 10216.6 1112.33 10216.6 1059V736H10145.6V661H10216.6V523H10307.6V661H10450.6V736H10307.6ZM10754.9 1218C10712.9 1218 10675.2 1211 10641.9 1197C10608.5 1182.33 10582.2 1162.33 10562.9 1137C10543.5 1111 10532.9 1081.33 10530.9 1048H10624.9C10627.5 1075.33 10640.2 1097.67 10662.9 1115C10686.2 1132.33 10716.5 1141 10753.9 1141C10788.5 1141 10815.9 1133.33 10835.9 1118C10855.9 1102.67 10865.9 1083.33 10865.9 1060C10865.9 1036 10855.2 1018.33 10833.9 1007C10812.5 995 10779.5 983.333 10734.9 972C10694.2 961.333 10660.9 950.667 10634.9 940C10609.5 928.667 10587.5 912.333 10568.9 891C10550.9 869 10541.9 840.333 10541.9 805C10541.9 777 10550.2 751.333 10566.9 728C10583.5 704.667 10607.2 686.333 10637.9 673C10668.5 659 10703.5 652 10742.9 652C10803.5 652 10852.5 667.333 10889.9 698C10927.2 728.667 10947.2 770.667 10949.9 824H10858.9C10856.9 795.333 10845.2 772.333 10823.9 755C10803.2 737.667 10775.2 729 10739.9 729C10707.2 729 10681.2 736 10661.9 750C10642.5 764 10632.9 782.333 10632.9 805C10632.9 823 10638.5 838 10649.9 850C10661.9 861.333 10676.5 870.667 10693.9 878C10711.9 884.667 10736.5 892.333 10767.9 901C10807.2 911.667 10839.2 922.333 10863.9 933C10888.5 943 10909.5 958.333 10926.9 979C10944.9 999.667 10954.2 1026.67 10954.9 1060C10954.9 1090 10946.5 1117 10929.9 1141C10913.2 1165 10889.5 1184 10858.9 1198C10828.9 1211.33 10794.2 1218 10754.9 1218Z" fill="black"/>
<circle cx="1110.5" cy="858.5" r="667.5" fill="#2C2C2C"/>
<mask id="mask0_23_193" style="mask-type:alpha" maskUnits="userSpaceOnUse" x="556" y="304" width="1109" height="1109">
<circle cx="1110.5" cy="858.501" r="554.025" fill="#D9D9D9"/>
</mask>
<g mask="url(#mask0_23_193)">
<path d="M812.127 1334.43C1539.97 1087.72 1506.99 601.068 1399.53 388.58C1337.58 896.414 860.632 1161.32 629.9 1230.3L812.127 1334.43Z" fill="#269C79"/>
<path d="M647.923 1164.21C512.821 623.273 1101.6 421.955 1401.53 388.58L755.391 -124.728L-443.439 1022.7L647.923 1164.21Z" fill="#59DB95"/>
<path d="M2155.8 1297.72L1576.41 563.466C1576.41 1155.14 988.569 1250.99 694.647 1224.96L948.297 1638.81L2155.8 1297.72Z" fill="#59DB95"/>
<circle cx="916.925" cy="858.502" r="222.945" fill="#9DFFCA"/>
</g>
</svg>
