<svg width="1000" height="1000" viewBox="0 0 1000 1000" fill="none" xmlns="http://www.w3.org/2000/svg">
<g clip-path="url(#clip0_22_85)">
<rect width="1000" height="1000" fill="white"/>
<rect width="1000" height="1000" fill="#0D4B3D"/>
<path d="M-1.5 996.5L997.5 -2.5V996.5H-1.5Z" fill="#053734"/>
<path d="M-1.5 -2.50004L997.5 996.5L-1.50004 996.5L-1.5 -2.50004Z" fill="#094033"/>
<path d="M500.5 558C481.655 558 462.995 554.288 445.585 547.077C428.175 539.865 412.355 529.295 399.03 515.97C385.705 502.645 375.135 486.825 367.923 469.415C360.712 452.005 357 433.345 357 414.5C357 395.655 360.712 376.995 367.923 359.585C375.135 342.175 385.705 326.355 399.03 313.03C412.355 299.705 428.175 289.135 445.585 281.923C462.995 274.712 481.655 271 500.5 271L500.5 414.5L500.5 558Z" fill="#F5B5AC"/>
<path d="M500.5 271C519.345 271 538.005 274.712 555.415 281.923C572.825 289.135 588.645 299.705 601.97 313.03C615.295 326.355 625.865 342.175 633.077 359.585C640.288 376.995 644 395.655 644 414.5C644 433.345 640.288 452.005 633.077 469.415C625.865 486.825 615.295 502.645 601.97 515.97C588.645 529.295 572.825 539.865 555.415 547.077C538.005 554.288 519.345 558 500.5 558L500.5 414.5L500.5 271Z" fill="#D3968E"/>
<path d="M-1.73238e-05 1079C-1.06622e-05 1002.8 17.4162 927.609 50.9182 859.169C84.4203 790.729 133.122 730.852 193.302 684.112L500 1079L-1.73238e-05 1079Z" fill="#231F1F"/>
<path d="M193.04 684.316C280.798 616.064 388.799 579.006 499.973 579L500 1079L193.04 684.316Z" fill="#59DB95"/>
<path d="M499.592 579C610.503 578.91 718.295 615.698 806.008 683.577L500 1079L499.592 579Z" fill="#136237"/>
<path d="M802.914 681.202C863.538 727.366 912.809 786.776 946.963 854.892C981.117 923.009 999.25 998.031 999.977 1074.23L500 1079L802.914 681.202Z" fill="#464646"/>
<ellipse cx="500.5" cy="271" rx="235.5" ry="58" fill="#231F1F"/>
</g>
<defs>
<clipPath id="clip0_22_85">
<rect width="1000" height="1000" fill="white"/>
</clipPath>
</defs>
</svg>
